<svg version="1.2" baseProfile="tiny-ps" xmlns="http://www.w3.org/2000/svg" viewBox="0 0 118 24" width="118" height="24">
	<title>Header</title>
	<style>
		tspan { white-space:pre }
		.shp0 { fill: #ffffff } 
	</style>
	<g id="Header">
		<g id="Header Menu &amp; Logo">
			<g id="Logo">
				<path id="appnest" class="shp0" d="M16.04 0.93L21.74 0.93L21.74 23.43L16.01 23.43L16.01 9.39L15.95 9.39L7.49 23.43L0.59 23.43L16.04 0.93L16.04 0.93ZM37.64 2.58C38.54 3.3 39.2 4.18 39.63 5.21C40.06 6.24 40.28 7.33 40.28 8.49C40.28 9.01 40.23 9.55 40.13 10.1C40.03 10.65 39.88 11.18 39.69 11.7C39.5 12.22 39.26 12.72 38.96 13.19C38.66 13.66 38.31 14.06 37.91 14.4C37.43 14.84 36.93 15.19 36.42 15.45C35.91 15.71 35.39 15.91 34.85 16.05C34.31 16.19 33.75 16.28 33.17 16.32C32.59 16.36 31.99 16.38 31.37 16.38L30.32 16.38L30.32 11.34L31.19 11.34C31.65 11.34 32.1 11.31 32.54 11.24C32.98 11.17 33.36 11.03 33.69 10.83C34.02 10.63 34.29 10.36 34.49 10.01C34.69 9.66 34.79 9.19 34.79 8.61C34.79 8.01 34.68 7.54 34.46 7.19C34.24 6.84 33.95 6.57 33.59 6.39C33.23 6.21 32.82 6.1 32.37 6.05C31.92 6 31.46 5.97 30.98 5.97L28.88 5.97L28.88 11.34L28.88 16.38L28.88 23.43L23.36 23.43L23.36 0.93L30.71 0.93C31.29 0.93 31.89 0.95 32.51 0.98C33.13 1.01 33.74 1.07 34.34 1.17C34.94 1.27 35.52 1.44 36.09 1.67C36.66 1.9 37.18 2.2 37.64 2.58ZM56.21 2.58C57.11 3.3 57.77 4.18 58.2 5.21C58.63 6.24 58.85 7.33 58.85 8.49C58.85 9.01 58.8 9.55 58.7 10.1C58.6 10.65 58.45 11.18 58.26 11.7C58.07 12.22 57.83 12.72 57.53 13.19C57.23 13.66 56.88 14.06 56.48 14.4C56 14.84 55.5 15.19 54.99 15.45C54.48 15.71 53.96 15.91 53.42 16.05C52.88 16.19 52.32 16.28 51.74 16.32C51.16 16.36 50.56 16.38 49.94 16.38L48.89 16.38L48.89 11.34L49.76 11.34C50.22 11.34 50.67 11.31 51.11 11.24C51.55 11.17 51.93 11.03 52.26 10.83C52.59 10.63 52.86 10.36 53.06 10.01C53.26 9.66 53.36 9.19 53.36 8.61C53.36 8.01 53.25 7.54 53.03 7.19C52.81 6.84 52.52 6.57 52.16 6.39C51.8 6.21 51.39 6.1 50.94 6.05C50.49 6 50.03 5.97 49.55 5.97L47.45 5.97L47.45 11.34L47.45 16.38L47.45 23.43L41.93 23.43L41.93 0.93L49.28 0.93C49.86 0.93 50.46 0.95 51.08 0.98C51.7 1.01 52.31 1.07 52.91 1.17C53.51 1.27 54.09 1.44 54.66 1.67C55.23 1.9 55.75 2.2 56.21 2.58ZM76.04 0.93L76.04 0.93L78.32 0.93L78.32 3L78.32 23.43L76.04 23.43L62.72 3.66L62.69 3.66L62.69 23.43L60.41 23.43L60.41 0.93L63.44 0.93L76.01 19.59L76.04 19.59L76.04 3L70.7 3L70.7 0.93L76.04 0.93L76.04 0.93ZM80.48 23.37L80.48 0.87L92.81 0.87L92.81 2.91L82.76 2.91L82.76 11.01L88.61 11.01L88.61 13.05L82.76 13.05L82.76 21.36L92.81 21.36L92.81 23.37L80.48 23.37L80.48 23.37ZM102.23 23.46C101.27 23.46 100.38 23.31 99.56 23C98.74 22.69 98.03 22.25 97.44 21.69C96.85 21.13 96.39 20.45 96.05 19.65C95.71 18.85 95.53 17.96 95.51 16.98L97.7 16.98C97.76 18.34 98.18 19.44 98.97 20.27C99.76 21.1 100.85 21.51 102.23 21.51C102.83 21.51 103.39 21.4 103.92 21.17C104.45 20.94 104.92 20.63 105.32 20.24C105.72 19.85 106.03 19.39 106.26 18.86C106.49 18.33 106.61 17.76 106.61 17.16C106.61 16.42 106.47 15.8 106.19 15.3C105.91 14.8 105.54 14.38 105.08 14.03C104.62 13.68 104.1 13.38 103.52 13.14C102.94 12.9 102.36 12.69 101.78 12.51C101 12.29 100.27 12.05 99.59 11.78C98.91 11.51 98.31 11.16 97.79 10.73C97.27 10.3 96.86 9.77 96.56 9.14C96.26 8.51 96.11 7.72 96.11 6.78C96.11 5.92 96.27 5.14 96.6 4.43C96.93 3.72 97.37 3.1 97.92 2.58C98.47 2.06 99.12 1.66 99.86 1.37C100.6 1.08 101.39 0.93 102.23 0.93C103.07 0.93 103.85 1.08 104.58 1.38C105.31 1.68 105.95 2.1 106.49 2.63C107.03 3.16 107.45 3.79 107.76 4.52C108.07 5.25 108.23 6.03 108.23 6.87L106.1 6.87C106.1 6.33 106 5.82 105.8 5.34C105.6 4.86 105.32 4.44 104.97 4.08C104.62 3.72 104.21 3.44 103.74 3.23C103.27 3.02 102.77 2.91 102.23 2.91C101.69 2.91 101.18 3.01 100.7 3.2C100.22 3.39 99.8 3.65 99.44 3.98C99.08 4.31 98.79 4.71 98.58 5.18C98.37 5.65 98.27 6.15 98.27 6.69C98.27 7.43 98.43 8.03 98.76 8.48C99.09 8.93 99.51 9.3 100.02 9.59C100.53 9.88 101.1 10.11 101.72 10.28C102.34 10.45 102.93 10.62 103.49 10.8C104.27 11.04 104.98 11.35 105.62 11.72C106.26 12.09 106.81 12.53 107.28 13.04C107.75 13.55 108.12 14.14 108.38 14.81C108.64 15.48 108.77 16.23 108.77 17.07C108.77 17.97 108.59 18.81 108.24 19.59C107.89 20.37 107.42 21.05 106.83 21.62C106.24 22.19 105.55 22.64 104.76 22.97C103.97 23.3 103.13 23.46 102.23 23.46ZM110.63 0.93L118.01 0.93L118.01 2.94L112.85 2.94L112.85 23.46L110.63 23.46L110.63 2.94L110.63 0.93L110.63 0.93Z" />
			</g>
		</g>
	</g>
</svg>